<svg xmlns="http://www.w3.org/2000/svg" viewBox="0 0 109 109" width="320" height="320">
<style>
.grid { stroke: #e0e0e0; stroke-width: 0.5; }
.stroke {
  fill: none;
  stroke: #1a1a2e;
  stroke-width: 3;
  stroke-linecap: round;
  stroke-linejoin: round;
  animation-name: draw;
  animation-timing-function: ease-in-out;
  animation-fill-mode: forwards;
}
@keyframes draw { to { stroke-dashoffset: 0; } }
.arrow {
  opacity: 0;
  animation-name: showArrow;
  animation-duration: 0.01s;
  animation-fill-mode: forwards;
}
@keyframes showArrow { to { opacity: 1; } }
.num {
  font-family: Arial, sans-serif;
  font-size: 9px;
  fill: #1d7bd8;
  font-weight: bold;
  opacity: 0;
  animation-name: showNum;
  animation-duration: 0.01s;
  animation-fill-mode: forwards;
}
@keyframes showNum { to { opacity: 1; } }
</style>
<rect x="0" y="0" width="109" height="109" fill="#ffffff" stroke="#f0f0f0"/>
<line x1="54.5" y1="0" x2="54.5" y2="109" class="grid"/>
<line x1="0" y1="54.5" x2="109" y2="54.5" class="grid"/>
<g>
<path d="M 20.5,26.38 C 22.37,28.0 24.92,28.349999999999998 28.619999999999997,27.75 C 50.37,24.25 61.61999999999999,22.63 78.73999999999998,19.369999999999997 M 78.74,19.369999999999997 C 91.08,17.029999999999998 91.74,18.49 79.11999999999999,20.749999999999996 C 61.22999999999999,23.939999999999998 45.33999999999999,39.87 45.33999999999999,58.370000000000005 M 45.33999999999999,58.36999999999999 C 45.33999999999999,78.86999999999999 63.249999999999986,88.61999999999999 80.49999999999999,88.61999999999999" class="stroke" style="stroke-dasharray:185.2;stroke-dashoffset:185.2;animation-duration:1.10s;animation-delay:0.00s"/><path d="M 75.0,41.75 C 77.75,43.5 81.0,47.13 82.75,50.25" class="stroke" style="stroke-dasharray:11.6;stroke-dashoffset:11.6;animation-duration:0.35s;animation-delay:1.10s"/><path d="M 81.37,36.88 C 84.43,38.45 88.05000000000001,41.7 89.99000000000001,44.5" class="stroke" style="stroke-dasharray:11.6;stroke-dashoffset:11.6;animation-duration:0.35s;animation-delay:1.45s"/><g class="arrow" style="animation-delay:1.05s" transform="translate(80.5,88.6) rotate(11.9)"><path d="M0,0 L-6,-3 L-6,3 Z" fill="#e63946"/></g><g class="arrow" style="animation-delay:1.40s" transform="translate(82.8,50.2) rotate(59.1)"><path d="M0,0 L-6,-3 L-6,3 Z" fill="#e63946"/></g><g class="arrow" style="animation-delay:1.75s" transform="translate(90.0,44.5) rotate(53.5)"><path d="M0,0 L-6,-3 L-6,3 Z" fill="#e63946"/></g><text x="16.5" y="20.4" class="num" style="animation-delay:0.00s">1</text><text x="67.4" y="40.8" class="num" style="animation-delay:1.10s">2</text><text x="73.5" y="35.6" class="num" style="animation-delay:1.45s">3</text>
</g>
</svg>