<svg xmlns="http://www.w3.org/2000/svg" viewBox="0 0 109 109" width="320" height="320">
<style>
.grid { stroke: #e0e0e0; stroke-width: 0.5; }
.stroke {
  fill: none;
  stroke: #1a1a2e;
  stroke-width: 3;
  stroke-linecap: round;
  stroke-linejoin: round;
  animation-name: draw;
  animation-timing-function: ease-in-out;
  animation-fill-mode: forwards;
}
@keyframes draw { to { stroke-dashoffset: 0; } }
.arrow {
  opacity: 0;
  animation-name: showArrow;
  animation-duration: 0.01s;
  animation-fill-mode: forwards;
}
@keyframes showArrow { to { opacity: 1; } }
.num {
  font-family: Arial, sans-serif;
  font-size: 9px;
  fill: #1d7bd8;
  font-weight: bold;
  opacity: 0;
  animation-name: showNum;
  animation-duration: 0.01s;
  animation-fill-mode: forwards;
}
@keyframes showNum { to { opacity: 1; } }
</style>
<rect x="0" y="0" width="109" height="109" fill="#ffffff" stroke="#f0f0f0"/>
<line x1="54.5" y1="0" x2="54.5" y2="109" class="grid"/>
<line x1="0" y1="54.5" x2="109" y2="54.5" class="grid"/>
<g>
<path d="M34.31,20.38c1.75,1.25,4.62,2.62,8.5,1.5c3.88-1.12,9.62-2.5,15.62-4.62c6-2.12,7.5-0.12,4.38,4.25c-3.12,4.37-18.89,24.62-27.75,34c-8.5,9-13.09,11.89,0.75,3.25c15.62-9.75,43-10.88,43,13.38c0,22.5-40.88,24.5-40.88,12.62c0-11.25,18.12-8.75,24.38-0.38" class="stroke" style="stroke-dasharray:243.3;stroke-dashoffset:243.3;animation-duration:1.10s;animation-delay:0.00s"/>
<g class="arrow" style="animation-delay:1.05s" transform="translate(62.3,84.4) rotate(12.6)"><path d="M0,0 L-6,-3 L-6,3 Z" fill="#e63946"/></g>
<text x="28.9" y="18.6" class="num" style="animation-delay:0.00s">1</text>
</g>
</svg>